<svg width="314" height="281" viewBox="0 0 314 281" fill="none" xmlns="http://www.w3.org/2000/svg">
<path d="M61.391 280.935H61.39C55.9246 276.74 50.7389 272.193 45.866 267.323C38.7687 260.224 32.3659 252.464 26.745 244.147C21.0842 235.767 16.2483 226.859 12.305 217.547C8.3018 208.074 5.24591 198.229 3.182 188.154C1.0635 177.768 -0.00256101 167.194 4.61984e-06 156.594C4.61984e-06 145.968 1.07 135.35 3.182 125.034C5.24569 114.959 8.30159 105.113 12.305 95.64C16.2482 86.3279 21.0842 77.4197 26.745 69.04C32.366 60.7242 38.7684 52.9643 45.865 45.866C52.9643 38.7688 60.7248 32.3654 69.041 26.743C77.4211 21.0834 86.3293 16.2482 95.641 12.305C105.114 8.30073 114.961 5.24416 125.036 3.18C135.422 1.06329 145.995 -0.00208889 156.594 3.07482e-06C167.214 3.07482e-06 177.832 1.07 188.152 3.18C198.228 5.24391 208.074 8.30049 217.547 12.305C226.859 16.2482 235.767 21.0834 244.147 26.743C252.463 32.365 260.223 38.7684 267.322 45.866C274.419 52.9651 280.823 60.7253 286.446 69.041C292.105 77.4208 296.939 86.3287 300.882 95.64C304.887 105.113 307.944 114.959 310.007 125.035C312.125 135.421 313.191 145.994 313.188 156.594C313.188 167.219 312.118 177.837 310.007 188.154C307.943 198.229 304.887 208.075 300.882 217.548C296.94 226.86 292.105 235.768 286.446 244.148C280.823 252.464 274.419 260.224 267.322 267.323C262.449 272.193 257.262 276.739 251.796 280.933L229.961 242.861C255.337 221.247 269.891 189.804 269.891 156.594C269.891 94.122 219.065 43.298 156.593 43.298C94.121 43.298 43.298 94.122 43.298 156.593C43.298 189.803 57.851 221.246 83.227 242.861L61.391 280.933V280.935Z" fill="#E8F1FF"/>
<path fill-rule="evenodd" clip-rule="evenodd" d="M61.39 280.936H61.391V280.935L83.2271 242.862C57.8521 221.248 43.299 189.805 43.299 156.595C43.299 94.123 94.124 43.298 156.594 43.298C177.309 43.298 196.744 48.8864 213.47 58.6347L239.851 23.9424C232.743 19.4737 225.285 15.5819 217.548 12.306C208.076 8.30088 198.23 5.24395 188.155 3.18001C177.836 1.07001 167.218 3.11533e-06 156.596 3.11533e-06C145.996 -0.0021026 135.423 1.06327 125.036 3.18001C114.961 5.24507 105.114 8.30196 95.641 12.306C86.3292 16.2491 77.421 21.0844 69.041 26.744C60.7249 32.3664 52.9644 38.7698 45.865 45.867C38.7684 52.9653 32.366 60.7252 26.745 69.041C21.0841 77.4206 16.2482 86.3289 12.3051 95.641C8.30188 105.114 5.24598 114.96 3.18201 125.035C1.06348 135.421 -0.00255886 145.995 4.61218e-06 156.595C-0.00255886 167.195 1.06348 177.768 3.18201 188.154C5.24622 198.229 8.30237 208.075 12.306 217.548C16.249 226.86 21.085 235.768 26.746 244.148C32.3667 252.465 38.769 260.225 45.866 267.324C50.7389 272.194 55.9246 276.741 61.39 280.936Z" fill="#3C50E0"/>
</svg>
