<svg width="314" height="281" viewBox="0 0 314 281" fill="none" xmlns="http://www.w3.org/2000/svg">
<path d="M61.391 280.935H61.39C55.9246 276.74 50.7389 272.193 45.866 267.323C38.7687 260.224 32.3659 252.464 26.745 244.147C21.0842 235.767 16.2483 226.859 12.305 217.547C8.3018 208.074 5.24591 198.229 3.182 188.154C1.0635 177.768 -0.00256101 167.194 4.61984e-06 156.594C4.61984e-06 145.968 1.07 135.35 3.182 125.034C5.24569 114.959 8.30159 105.113 12.305 95.64C16.2482 86.3279 21.0842 77.4197 26.745 69.04C32.366 60.7242 38.7684 52.9643 45.865 45.866C52.9643 38.7688 60.7248 32.3654 69.041 26.743C77.4211 21.0834 86.3293 16.2482 95.641 12.305C105.114 8.30073 114.961 5.24416 125.036 3.18C135.422 1.06329 145.995 -0.00208889 156.594 3.07482e-06C167.214 3.07482e-06 177.832 1.07 188.152 3.18C198.228 5.24391 208.074 8.30049 217.547 12.305C226.859 16.2482 235.767 21.0834 244.147 26.743C252.463 32.365 260.223 38.7684 267.322 45.866C274.419 52.9651 280.823 60.7253 286.446 69.041C292.105 77.4208 296.939 86.3287 300.882 95.64C304.887 105.113 307.944 114.959 310.007 125.035C312.125 135.421 313.191 145.994 313.188 156.594C313.188 167.219 312.118 177.837 310.007 188.154C307.943 198.229 304.887 208.075 300.882 217.548C296.94 226.86 292.105 235.768 286.446 244.148C280.823 252.464 274.419 260.224 267.322 267.323C262.449 272.193 257.262 276.739 251.796 280.933L229.961 242.861C255.337 221.247 269.891 189.804 269.891 156.594C269.891 94.122 219.065 43.298 156.593 43.298C94.121 43.298 43.298 94.122 43.298 156.593C43.298 189.803 57.851 221.246 83.227 242.861L61.391 280.933V280.935Z" fill="#E8F1FF"/>
<path d="M61.391 280.936H61.39C55.9246 276.741 50.7389 272.194 45.866 267.324C38.7691 260.225 32.3666 252.465 26.746 244.148C21.0849 235.768 16.249 226.86 12.306 217.548C8.30239 208.075 5.24616 198.229 3.182 188.154C1.06352 177.768 -0.00254127 167.195 4.69343e-06 156.595C-0.00258131 145.995 1.06348 135.421 3.182 125.035C5.24595 114.96 8.30184 105.114 12.305 95.641C16.2482 86.3289 21.0841 77.4206 26.745 69.041C32.366 60.7252 38.7684 52.9653 45.865 45.867C52.9643 38.7698 60.7248 32.3664 69.041 26.744C77.4211 21.0844 86.3293 16.2491 95.641 12.306C105.114 8.30196 114.961 5.24507 125.036 3.18C135.423 1.06327 145.996 -0.00210788 156.596 3.13099e-06C167.218 3.13099e-06 177.836 1.07 188.155 3.18C198.23 5.24394 208.076 8.30087 217.548 12.306C226.86 16.2491 235.769 21.0843 244.149 26.744C252.466 32.3663 260.226 38.7697 267.326 45.867C274.423 52.9662 280.826 60.726 286.449 69.041C292.107 77.4213 296.942 86.3295 300.884 95.641C304.889 105.113 307.946 114.959 310.009 125.034C312.127 135.421 313.193 145.994 313.191 156.595C313.191 160.163 313.069 163.775 312.827 167.33H269.383C269.721 163.782 269.893 160.17 269.893 156.595C269.892 94.124 219.067 43.298 156.594 43.298C94.124 43.298 43.299 94.123 43.299 156.595C43.299 189.805 57.852 221.248 83.227 242.862L61.391 280.935V280.936Z" fill="#FF5670"/>
</svg>
