<svg width="314" height="282" viewBox="0 0 314 282" fill="none" xmlns="http://www.w3.org/2000/svg">
<path d="M61.391 280.935H61.39C55.9246 276.74 50.7389 272.193 45.866 267.323C38.7687 260.224 32.3659 252.464 26.745 244.147C21.0842 235.767 16.2483 226.859 12.305 217.547C8.3018 208.074 5.24591 198.229 3.182 188.154C1.0635 177.768 -0.00256101 167.194 4.61984e-06 156.594C4.61984e-06 145.968 1.07 135.35 3.182 125.034C5.24569 114.959 8.30159 105.113 12.305 95.64C16.2482 86.3279 21.0842 77.4197 26.745 69.04C32.366 60.7242 38.7684 52.9643 45.865 45.866C52.9643 38.7688 60.7248 32.3654 69.041 26.743C77.4211 21.0834 86.3293 16.2482 95.641 12.305C105.114 8.30073 114.961 5.24416 125.036 3.18C135.422 1.06329 145.995 -0.00208889 156.594 3.07482e-06C167.214 3.07482e-06 177.832 1.07 188.152 3.18C198.228 5.24391 208.074 8.30049 217.547 12.305C226.859 16.2482 235.767 21.0834 244.147 26.743C252.463 32.365 260.223 38.7684 267.322 45.866C274.419 52.9651 280.823 60.7253 286.446 69.041C292.105 77.4208 296.939 86.3287 300.882 95.64C304.887 105.113 307.944 114.959 310.007 125.035C312.125 135.421 313.191 145.994 313.188 156.594C313.188 167.219 312.118 177.837 310.007 188.154C307.943 198.229 304.887 208.075 300.882 217.548C296.94 226.86 292.105 235.768 286.446 244.148C280.823 252.464 274.419 260.224 267.322 267.323C262.449 272.193 257.262 276.739 251.796 280.933L229.961 242.861C255.337 221.247 269.891 189.804 269.891 156.594C269.891 94.122 219.065 43.298 156.593 43.298C94.121 43.298 43.298 94.122 43.298 156.593C43.298 189.803 57.851 221.246 83.227 242.861L61.391 280.933V280.935Z" fill="#E8F1FF"/>
<path fill-rule="evenodd" clip-rule="evenodd" d="M75.4574 23C73.2865 24.3172 71.1471 25.6875 69.041 27.1099C60.7248 32.7324 52.9643 39.1357 45.865 46.2329C38.7684 53.3312 32.366 61.0911 26.745 69.4069C21.0841 77.7866 16.2482 86.6948 12.305 96.0069C8.30184 105.48 5.24595 115.326 3.182 125.401C1.06347 135.787 -0.00258167 146.361 4.69474e-06 156.961C-0.00254352 167.561 1.06351 178.134 3.182 188.52C5.24615 198.595 8.30239 208.441 12.306 217.914C16.249 227.226 21.0849 236.134 26.746 244.514C32.3666 252.831 38.7691 260.591 45.866 267.69C50.7389 272.56 55.9246 277.107 61.39 281.302H61.391V281.301L83.227 243.228C57.852 221.614 43.299 190.171 43.299 156.961C43.299 114.337 66.9584 77.1358 101.833 57.7991L75.4574 23Z" fill="#FDB400"/>
</svg>
